<?xml version="1.0" encoding="UTF-8"?><svg id="_レイヤー_2" xmlns="http://www.w3.org/2000/svg" viewBox="0 0 100 100"><defs><style>.cls-1{fill:#fff;}</style></defs><g id="Layer_1"><circle cx="50" cy="50" r="50"/><path class="cls-1" d="m26.31,20.17c-4.5,0-8.7,1.95-11.63,5.45-2.35,2.81-3.49,6.45-3.49,10.12v10.31c0,.14.12.26.26.26h20.22c.14.01.26.13.26.27v6.12c0,3.13-1.51,6.14-4,8.06l-11.21,8.6c-.17.13-.42,0-.42-.2v-17.06c0-.14-.12-.26-.26-.26h-4.59c-.14,0-.26.12-.26.26v27.47c0,.21.25.34.42.2l19.44-14.95c1.85-1.42,3.37-3.28,4.4-5.37,1.03-2.09,1.58-4.43,1.58-6.76v-11.25c0-.14-.12-.26-.26-.26h-20.22c-.14-.01-.26-.13-.26-.27v-5.39c0-5.64,4.57-10.21,10.21-10.21h56.02c.06,0,.11-.02.16-.05l6.02-4.64c.2-.15.09-.46-.16-.46H26.31Z"/><path class="cls-1" d="m48.38,35.9h20.41l6.69-5.1H27.78c-2.83,0-5.13,2.26-5.13,5.09h0s20.57.01,20.57.01v19.6l5.16-3.93v-15.66Z"/></g></svg>